<?xml version="1.0" encoding="UTF-8" standalone="no"?>
<!DOCTYPE svg PUBLIC "-//W3C//DTD SVG 1.1//EN" "http://www.w3.org/Graphics/SVG/1.1/DTD/svg11.dtd">
<svg width="100%" height="100%" viewBox="0 0 1000 1000" version="1.1" xmlns="http://www.w3.org/2000/svg" xmlns:xlink="http://www.w3.org/1999/xlink" xml:space="preserve" xmlns:serif="http://www.serif.com/" style="fill-rule:evenodd;clip-rule:evenodd;stroke-linejoin:round;stroke-miterlimit:2;">
    <g transform="matrix(1.13636,0,0,1.13636,-357.444,453.31)">
        <path d="M768.951,437.088C726.284,437.088 685.751,431.754 647.351,421.088C610.017,409.354 575.351,393.354 543.351,373.088C511.351,351.754 483.617,326.688 460.151,297.888L552.951,205.088C580.684,239.221 612.684,264.821 648.951,281.888C685.217,297.888 725.751,305.888 770.551,305.888C815.351,305.888 850.017,298.421 874.551,283.488C899.084,267.488 911.351,245.621 911.351,217.888C911.351,190.154 901.217,168.821 880.951,153.888C861.751,137.888 836.684,125.088 805.751,115.488C774.817,104.821 741.751,94.688 706.551,85.088C672.417,74.421 639.884,61.088 608.951,45.088C578.017,29.088 552.417,7.221 532.151,-20.512C512.951,-48.246 503.351,-85.046 503.351,-130.912C503.351,-176.779 514.551,-216.246 536.951,-249.312C559.351,-283.446 590.284,-309.579 629.751,-327.712C670.284,-345.846 718.817,-354.912 775.351,-354.912C835.084,-354.912 887.884,-344.246 933.751,-322.912C980.684,-302.646 1019.08,-271.712 1048.95,-230.112L956.151,-137.312C934.817,-165.046 908.151,-186.379 876.151,-201.312C845.217,-216.246 810.017,-223.712 770.551,-223.712C728.951,-223.712 696.951,-216.246 674.551,-201.312C653.217,-187.446 642.551,-167.712 642.551,-142.112C642.551,-116.512 652.151,-96.779 671.351,-82.912C690.551,-69.046 715.617,-57.312 746.551,-47.712C778.551,-38.112 811.617,-27.979 845.751,-17.312C879.884,-7.712 912.417,5.621 943.351,22.688C974.284,39.754 999.351,62.688 1018.55,91.488C1038.82,120.288 1048.95,158.154 1048.95,205.088C1048.95,276.554 1023.35,333.088 972.151,374.688C922.017,416.288 854.284,437.088 768.951,437.088Z" style="fill:rgb(29,167,237);fill-opacity:0.75;fill-rule:nonzero;"/>
    </g>
</svg>
